<svg xmlns="http://www.w3.org/2000/svg" width="426.667" height="426.667" preserveAspectRatio="xMidYMid meet" version="1.0" viewBox="0 0 320 320"><metadata>Created by potrace 1.14, written by Peter Selinger 2001-2017</metadata><g fill="#000" stroke="none"><path d="M602 2597 c-161 -161 -313 -319 -338 -352 -65 -84 -149 -262 -181 -380 -23 -89 -26 -119 -26 -265 -1 -138 3 -180 22 -255 33 -134 112 -306 183 -400 41 -54 621 -640 633 -640 2 0 159 154 349 342 189 189 349 343 355 343 6 0 167 -155 358 -345 l348 -345 288 288 c159 158 308 313 333 346 104 137 169 286 209 481 13 63 14 281 1 350 -15 80 -43 189 -55 213 -5 10 -27 56 -51 105 -65 136 -136 220 -441 524 l-284 283 -353 -351 -353 -350 -350 348 c-193 191 -351 349 -352 350 -2 1 -134 -129 -295 -290z" transform="translate(0.000000,320.000000) scale(0.100000,-0.100000)"/></g></svg>